<svg viewBox="0 0 1297.9 368.4" xmlns="http://www.w3.org/2000/svg" xmlns:xlink="http://www.w3.org/1999/xlink"><radialGradient id="a" cx="149.75" cy="377.95" fx="149.75" fy="377.95" gradientUnits="userSpaceOnUse" r="216.66"><stop offset="0" stop-color="#3bd8ff"/><stop offset="1" stop-color="#3b61ff"/></radialGradient><radialGradient id="b" cy="377.95" fy="377.95" r="216.66" xlink:href="#a"/><radialGradient id="c" cx="1043.72" cy="268.2" fx="1043.72" fy="268.2" r="227.74" xlink:href="#a"/><path d="m67.71 283.71c-3.33 1.38-6.87 2.06-10.63 2.06-6.22 0-11.18-2.32-14.87-6.97s-5.53-10.31-5.53-16.99c0-4.79.98-9.47 2.93-14.05 1.95-4.57 4.56-8.6 7.81-12.09 3.26-3.48 6.95-6.28 11.07-8.38 4.12-2.11 8.28-3.16 12.48-3.16 3.76 0 7.23.98 10.42 2.93 3.18 1.95 5.57 4.52 7.16 7.7l24.31-19.25c-4.2-5.6-9.59-10.04-16.17-13.35-6.59-3.3-14.22-4.95-22.9-4.95-9.41 0-18.52 1.88-27.35 5.63-8.83 3.76-16.68 8.78-23.55 15.06s-12.41 13.61-16.6 21.98c-4.2 8.38-6.29 17.19-6.29 26.43 0 6.64 1.16 12.78 3.47 18.41s5.53 10.51 9.66 14.62c4.12 4.12 9.08 7.37 14.87 9.75s12.23 3.57 19.32 3.57c8.54 0 16.85-1.61 24.96-4.84 8.1-3.23 15.48-7.57 22.14-13.03l-15.84-18.37c-3.91 3.47-7.53 5.9-10.85 7.27z" fill="url(#a)"/><path d="m245.9 198.1h-36.24l-2.82 12.15c-8.25-8.68-18.09-13.02-29.52-13.02-7.67 0-15.16 1.74-22.46 5.21-7.31 3.47-13.96 8.21-19.97 14.22s-10.96 12.99-14.87 20.94c-3.91 7.96-6.29 16.42-7.16 25.39-.15.87-.22 1.77-.22 2.71v2.71c0 6.51.98 12.45 2.93 17.8s4.67 9.98 8.14 13.89 7.6 6.95 12.37 9.12 9.98 3.26 15.63 3.26 11.43-1.09 17.36-3.26 11.72-5.35 17.36-9.55l5.21 11.94h29.13zm-50.24 63.37c-1.67 4.63-3.91 8.76-6.73 12.37-2.82 3.62-6.04 6.48-9.66 8.57-3.62 2.1-7.38 3.15-11.29 3.15-6.08 0-10.56-2.2-13.46-6.62-2.9-4.41-4.34-9.66-4.34-15.73 0-1.44.07-2.53.22-3.26.43-4.34 1.52-8.68 3.26-13.02s4.02-8.17 6.84-11.5 6.08-6.04 9.77-8.14 7.63-3.15 11.83-3.15c5.06 0 9.01 2.21 11.83 6.62 2.82 4.42 4.23 9.8 4.23 16.17 0 5.07-.83 9.91-2.5 14.54z" fill="url(#b)"/><path d="m331.41 197.23c-10.56 0-19.97 4.92-28.21 14.76l3.04-13.89h-36.03l-25.83 113.51h36.03l12.59-56.21c2.17-9.98 5.79-17.69 10.85-23.11 5.06-5.43 11.07-8.14 18.01-8.14 3.17 0 6.86.78 11.04 2.34l6.52-28.17c-2.73-.72-5.4-1.08-8.01-1.08z" fill="url(#b)"/><g fill="#101026"><path d="m742.01 209.9c-3.76-4.12-8.28-7.33-13.56-9.64s-11.03-3.47-17.25-3.47c-4.2 0-8.83.51-13.89 1.51-5.07 1-9.77 2.58-14.11 4.73l11.5-50.52h-35.05l-36.81 159.08c5.35 4.49 14.45-9.8 19.87-7.27 5.43 2.53 10.74 4.42 15.95 5.64 5.21 1.23 10.16 1.99 14.87 2.28 4.7.29 9.01.43 12.91.43 8.54 0 16.85-1.91 24.96-5.74 8.1-3.83 15.3-8.95 21.59-15.38s11.36-13.86 15.19-22.31 5.75-17.37 5.75-26.75c0-6.5-1.05-12.53-3.15-18.09s-5.03-10.4-8.79-14.51zm-27.67 52.44c-1.95 4.77-4.67 8.9-8.14 12.37s-7.53 6.19-12.15 8.14c-4.63 1.95-9.55 2.93-14.76 2.93-5.5 0-10.28-1.01-14.32-3.04l12.8-55.99c5.21-2.02 10.42-3.04 15.63-3.04 7.52 0 13.38 2.1 17.58 6.29 4.19 4.2 6.29 9.77 6.29 16.71 0 5.64-.98 10.85-2.93 15.63z"/><path d="m834.03 152.52h-36.25l-36.24 159.08h36.35z"/><path d="m948.34 215.62c-1.74-3.7-4.45-6.97-8.14-9.79-3.69-2.83-8.39-5.08-14.11-6.75s-12.48-2.51-20.29-2.51c-8.97 0-17.87 1.74-26.7 5.22s-16.75 8.34-23.77 14.57-12.7 13.59-17.04 22.07c-.89 1.74-1.68 3.52-2.39 5.32 0 0-.79 1.35-2.06 6.63s-1.81 10.06-1.81 10.06c-.17 1.94-.26 3.92-.26 5.93 0 6.52 1.05 12.58 3.15 18.16s5.1 10.47 9.01 14.68c3.91 4.2 8.57 7.5 14 9.89s11.54 3.59 18.34 3.59c8.82 0 17.4-1.92 25.72-5.75s15.95-9.01 22.9-15.52l-14.54-15.63c-8.39 7.09-16.86 10.63-25.39 10.63-6.22 0-11.11-1.59-14.65-4.77-3.55-3.18-5.32-7.74-5.32-13.67 0-.72.03-1.52.11-2.39.07-.87.18-1.74.33-2.6 4.63 1.74 8.75 2.97 12.37 3.69 3.62.73 7.52 1.09 11.72 1.09 10.56 0 19.68-1.27 27.35-3.81s14.03-5.81 19.1-9.8c5.06-3.99 8.82-8.38 11.29-13.17 2.46-4.79 3.69-9.36 3.69-13.71 0-4.06-.87-7.95-2.6-11.65zm-30.71 24.14c-1.52 1.74-3.47 3.22-5.86 4.45s-5.14 2.14-8.25 2.71c-3.11.58-6.4.87-9.88.87-4.63 0-9.01-.33-13.13-.98s-7.63-1.55-10.53-2.71c1.16-3.33 2.93-6.26 5.32-8.79s5.1-4.67 8.14-6.4c3.04-1.74 6.26-3.07 9.66-4.02 3.4-.94 6.76-1.41 10.09-1.41 5.35 0 9.55.98 12.59 2.93s4.56 4.38 4.56 7.27c-.29 2.32-1.19 4.34-2.71 6.08z"/><path d="m590.53 198.1-2.82 12.15c-6.68-7.03-14.4-11.21-23.17-12.55 0 0-3.79-.26-6.93-.26s-6.74.32-6.74.32c-5.13.76-10.18 2.31-15.14 4.67-7.31 3.47-13.96 8.21-19.97 14.22s-10.96 12.99-14.87 20.94c-1.03 2.09-1.95 4.22-2.76 6.39-2.29 6.06-3.76 12.4-4.4 19.01-.15.87-.22 1.77-.22 2.71v2.71c0 6.51.98 12.45 2.93 17.8s4.67 9.98 8.14 13.89 7.6 6.95 12.37 9.12 9.98 3.26 15.63 3.26 11.43-1.09 17.36-3.26 11.72-5.35 17.36-9.55l5.21 11.94h27.99l26.26-113.51h-36.24zm-14 63.37c-1.67 4.63-3.91 8.76-6.73 12.37-2.82 3.62-6.04 6.48-9.66 8.57-3.62 2.1-7.38 3.15-11.29 3.15-6.08 0-10.56-2.2-13.46-6.62-2.9-4.41-4.34-9.66-4.34-15.73 0-1.44.07-2.53.22-3.26.43-4.34 1.52-8.68 3.26-13.02s4.02-8.17 6.84-11.5 6.08-6.04 9.77-8.14 7.63-3.15 11.83-3.15c5.06 0 9.01 2.21 11.83 6.62 2.82 4.42 4.23 9.8 4.23 16.17 0 5.07-.83 9.91-2.5 14.54z"/><path d="m410.1 198.1-43.62.19-35.41 153.04c3.67-.7 7.07-1.64 10.19-2.83 7.6-2.9 14-6.8 19.21-11.72s9.37-10.67 12.48-17.25c3.11-6.59 5.53-13.64 7.27-21.16l17.15-75.53h24.59l5.72-24.74h-17.59z"/><path d="m486.36 198.1h-36.34l-7.37 31.85-18.36 81.65h35.87l22.62-97.76z"/><path d="m489.48 176.7-27.44-34.21-7.04 34.09z"/><path d="m440.52 142.49c-30.45.41-63.72 17.7-69.24 34.75h61.08z"/><path d="m1181.44 276.96v-13.04c0-9.69-7.89-17.58-17.58-17.58h-1.3c-2.37-15.79-16.02-27.94-32.46-27.94s-30.09 12.15-32.46 27.94h-1.3c-9.69 0-17.58 7.89-17.58 17.58v13.04c0 2.7 2.19 4.89 4.89 4.89h10.2c2.04 5.88 7.62 10.13 14.19 10.13s12.15-4.24 14.18-10.13h15.76c2.03 5.88 7.62 10.13 14.18 10.13s12.15-4.24 14.18-10.13h10.2c2.7 0 4.89-2.19 4.89-4.89zm-51.34-48.78c11.03 0 20.27 7.79 22.52 18.16h-45.03c2.25-10.37 11.48-18.16 22.52-18.16zm-22.06 54.02c-2.89 0-5.24-2.35-5.24-5.24s2.35-5.24 5.24-5.24 5.24 2.35 5.24 5.24-2.35 5.24-5.24 5.24zm44.13 0c-2.89 0-5.24-2.35-5.24-5.24s2.35-5.24 5.24-5.24 5.24 2.35 5.24 5.24-2.35 5.24-5.24 5.24zm19.49-10.13h-5.31c-2.03-5.88-7.62-10.13-14.18-10.13s-12.15 4.24-14.18 10.13h-15.76c-2.03-5.88-7.62-10.13-14.18-10.13s-12.15 4.24-14.19 10.13h-5.31v-8.15c0-4.3 3.5-7.8 7.8-7.8h67.52c4.3 0 7.8 3.5 7.8 7.8v8.15z"/></g><path d="m1296 181.67c-6.24-69.44-37.99-130.83-86.82-175.05l-.02.02c-3.79-4.41-9.56-7.07-15.94-6.59-9.23.7-16.72 8.11-17.5 17.34-.56 6.63 2.28 12.63 6.98 16.44l-.02.02c20.32 18.18 37.4 39.9 50.3 64.18.77 1.45.77 3.18.04 4.64l-.06.11c-1.86 3.68-7.09 3.73-9.02.09-19.31-36.37-48.45-66.71-83.89-87.49-3.85-3.4-9.05-5.32-14.71-4.81-9.05.81-16.44 7.96-17.52 16.98-.96 8.01 2.95 15.19 9.15 19l-.06.08c34.77 19.33 62.57 49.66 78.71 86.29 1.07 2.42-.12 5.24-2.58 6.2l-.09.03c-2.3.9-4.88-.18-5.88-2.43-14.05-31.92-37.45-58.8-66.71-77.18-3.52-2.49-7.9-3.84-12.61-3.51-9.79.69-17.63 8.77-18.04 18.58-.25 6.06 2.27 11.54 6.41 15.27l-.04.05c.13.08.26.17.39.26 1.15.99 2.42 1.85 3.78 2.55 15.44 10.76 29.68 25.43 40.6 42.16 1.87 2.86-.27 6.64-3.69 6.5-2.21-.09-4.45-.13-6.76-.13-56.04 0-102.59 40.59-111.87 93.97-.02.14-.02.28 0 .42-.09.8-.13 1.62-.13 2.44 0 12.41 10.06 22.48 22.48 22.48 11.33 0 20.7-8.39 22.25-19.3.03-.06.06-.13.07-.19 6.39-31.44 34.3-55.07 67.68-54.85 36.49.25 66.66 29.43 68.05 65.9 1.49 39.1-29.76 71.26-68.53 71.26-26.98 0-50.32-15.58-61.52-38.24-.25-.51-1.56-3.72-2.76-5.54-4.15-6.94-11.92-11.46-20.71-10.93-10.98.67-19.98 9.38-20.98 20.34-.37 4.07.35 7.94 1.9 11.35.57 1.36.8 1.76 1.72 3.68 18.34 38.05 57.27 64.31 102.34 64.31.95 0 1.9-.01 2.84-.04.94.02 1.89.04 2.83.04 89.37 0 161.82-72.45 161.82-161.81 0-8.31-1.9-24.91-1.9-24.91z" fill="url(#c)"/></svg>